<svg width="32" height="32" viewBox="0 0 32 32" fill="none" xmlns="http://www.w3.org/2000/svg">
<path fill-rule="evenodd" clip-rule="evenodd" d="M16 23C24.9321 23 29 16 29 16C29 16 24.5315 9 16 9C7.46851 9 3 16 3 16C3 16 7.06787 23 16 23ZM16 21C18.7614 21 21 18.7614 21 16C21 13.2386 18.7614 11 16 11C13.2386 11 11 13.2386 11 16C11 18.7614 13.2386 21 16 21ZM19 16C19 17.6569 17.6569 19 16 19C14.3431 19 13 17.6569 13 16C13 14.3431 14.3431 13 16 13C17.6569 13 19 14.3431 19 16Z" fill="#11103C"/>
</svg>
