<svg width="24" height="24" viewBox="0 0 24 24" fill="none" xmlns="http://www.w3.org/2000/svg">
<path fill-rule="evenodd" clip-rule="evenodd" d="M21 12C21 7.032 16.968 3 12 3C7.032 3 3 7.032 3 12C3 16.968 7.032 21 12 21C16.968 21 21 16.968 21 12ZM5 12C5 8.13657 8.13657 5 12 5C15.8634 5 19 8.13657 19 12C19 15.8634 15.8634 19 12 19C8.13657 19 5 15.8634 5 12ZM12.9 15.6C12.9 16.0971 12.4971 16.5 12 16.5C11.5029 16.5 11.1 16.0971 11.1 15.6V12C11.1 11.5029 11.5029 11.1 12 11.1C12.4971 11.1 12.9 11.5029 12.9 12V15.6ZM12 9.3C12.4971 9.3 12.9 8.89706 12.9 8.4C12.9 7.90294 12.4971 7.5 12 7.5C11.5029 7.5 11.1 7.90294 11.1 8.4C11.1 8.89706 11.5029 9.3 12 9.3Z" fill="#1F7A78"/>
</svg>
