<svg width="24" height="24" viewBox="0 0 24 24" fill="none" xmlns="http://www.w3.org/2000/svg">
<path d="M13.4532 15.5954C13.418 15.5605 13.3704 15.5409 13.3208 15.5409C13.2712 15.5409 13.2236 15.5605 13.1884 15.5954L10.4649 18.3188C9.20398 19.5798 7.07585 19.7134 5.68367 18.3188C4.28914 16.9243 4.42273 14.7985 5.68367 13.5376L8.4071 10.8141C8.47976 10.7415 8.47976 10.6219 8.4071 10.5493L7.47429 9.61648C7.43905 9.58158 7.39146 9.56201 7.34187 9.56201C7.29228 9.56201 7.24469 9.58158 7.20945 9.61648L4.48601 12.3399C2.5032 14.3227 2.5032 17.5313 4.48601 19.5118C6.46882 21.4923 9.67742 21.4946 11.6579 19.5118L14.3813 16.7884C14.454 16.7157 14.454 16.5962 14.3813 16.5235L13.4532 15.5954ZM19.5141 4.48601C17.5313 2.5032 14.3227 2.5032 12.3423 4.48601L9.61648 7.20945C9.58159 7.24469 9.56201 7.29228 9.56201 7.34187C9.56201 7.39146 9.58159 7.43905 9.61648 7.47429L10.5469 8.40476C10.6196 8.47742 10.7391 8.47742 10.8118 8.40476L13.5352 5.68132C14.7962 4.42039 16.9243 4.28679 18.3165 5.68132C19.711 7.07585 19.5774 9.20164 18.3165 10.4626L15.593 13.186C15.5581 13.2212 15.5386 13.2688 15.5386 13.3184C15.5386 13.368 15.5581 13.4156 15.593 13.4509L16.5259 14.3837C16.5985 14.4563 16.718 14.4563 16.7907 14.3837L19.5141 11.6602C21.4946 9.67742 21.4946 6.46882 19.5141 4.48601ZM14.2993 8.72585C14.2641 8.69096 14.2165 8.67138 14.1669 8.67138C14.1173 8.67138 14.0697 8.69096 14.0344 8.72585L8.72585 14.0321C8.69096 14.0673 8.67139 14.1149 8.67139 14.1645C8.67139 14.2141 8.69096 14.2617 8.72585 14.2969L9.65398 15.2251C9.72664 15.2977 9.84617 15.2977 9.91882 15.2251L15.2251 9.91882C15.2977 9.84617 15.2977 9.72664 15.2251 9.65398L14.2993 8.72585Z" fill="#8E8CD9"/>
</svg>
