<svg width="700" height="580" viewBox="0 0 700 580" fill="none" xmlns="http://www.w3.org/2000/svg">
<path fill-rule="evenodd" clip-rule="evenodd" d="M643.775 419.173L666.143 354.702C672.781 335.568 667.746 314.321 653.228 300.201L652.597 299.588C638.002 285.392 630.877 265.193 633.336 244.982L641.726 176.029C646.075 140.289 620.627 107.791 584.887 103.442C583.065 103.221 581.235 103.076 579.402 103.009L552.509 102.023L497.63 49.6381C478.929 31.7874 451.037 27.5934 427.914 39.1551L365.771 70.2265C355.708 75.2579 344.514 77.5994 333.278 77.0232L282.838 74.4365C255.927 73.0565 232.06 91.5821 226.721 117.994L218.266 159.824C217.71 162.574 217.333 165.357 217.135 168.155L209.206 280.633C208.826 286.025 207.434 291.296 205.102 296.171L183.296 341.764C176.512 355.949 175.084 372.108 179.274 387.263L188.096 419.173H643.775Z" fill="#C7C6EC"/>
<path fill-rule="evenodd" clip-rule="evenodd" d="M188.096 419.173L129.613 482.656C112.293 501.457 113.493 530.738 132.294 548.058C140.308 555.441 150.67 559.76 161.555 560.254L595.391 579.951C620.927 581.111 642.568 561.35 643.728 535.813C643.76 535.114 643.775 534.414 643.775 533.714V419.173H188.096Z" fill="#8E8CD9"/>
<mask id="mask0" mask-type="alpha" maskUnits="userSpaceOnUse" x="276" y="0" width="424" height="266">
<path d="M294.03 209.912V0H276.429V218.713C276.429 223.574 280.369 227.514 285.229 227.514H428.792C439.041 227.514 449.096 230.307 457.876 235.593L490.734 255.375C502.255 262.311 515.449 265.976 528.897 265.976H699.513V248.375H528.897C518.648 248.375 508.593 245.581 499.812 240.295L466.955 220.514C455.434 213.577 442.24 209.912 428.792 209.912H294.03Z" fill="white"/>
</mask>
<g mask="url(#mask0)">
<path d="M294.03 209.912V0H276.429V218.713C276.429 223.574 280.369 227.514 285.229 227.514H428.792C439.041 227.514 449.096 230.307 457.876 235.593L490.734 255.375C502.255 262.311 515.449 265.976 528.897 265.976H699.513V248.375H528.897C518.648 248.375 508.593 245.581 499.812 240.295L466.955 220.514C455.434 213.577 442.24 209.912 428.792 209.912H294.03Z" fill="#C93636"/>
<path fill-rule="evenodd" clip-rule="evenodd" d="M622.262 243.159H716.136V275.103H622.262V243.159ZM256.545 204.697H350.419V236.64H256.545V204.697ZM271.213 128.751V48.8926H310.653L303.156 128.751H271.213ZM458.309 198.178L533.93 234.033V265.976C531.759 274.272 522.85 277.749 507.202 276.406C491.554 275.064 467.542 268.762 435.167 257.501L458.309 198.178Z" fill="#DE6262"/>
</g>
<path fill-rule="evenodd" clip-rule="evenodd" d="M385.622 266.628L169.191 58.9971L150.286 326.603L381.385 285.533L385.622 266.628Z" fill="#FFEECD"/>
<mask id="mask1" mask-type="alpha" maskUnits="userSpaceOnUse" x="42" y="47" width="189" height="274">
<path d="M82.9486 316.785C125.488 333.952 183.992 288.491 213.62 215.245C243.248 141.999 232.782 68.7058 190.242 51.5392C147.703 34.3725 89.1995 79.8336 59.5711 153.079C29.9428 226.325 40.4092 299.619 82.9486 316.785Z" fill="white"/>
</mask>
<g mask="url(#mask1)">
<path d="M149.005 326.686C194.702 322.669 226.19 255.602 219.336 176.889C212.482 98.1756 169.882 37.6221 124.186 41.639C78.4892 45.6559 47.0011 112.722 53.8548 191.436C60.7086 270.149 103.309 330.702 149.005 326.686Z" fill="#F5CB76"/>
<path d="M225.906 276.732V288.467H155.501V276.732H122.254V263.694H190.703H260.457V276.732H225.906ZM224.602 276.732H190.703H156.805V287.163H224.602V276.732ZM155.501 275.428H190.703V264.998H123.558V275.428H155.501ZM192.007 275.428H225.906H259.153V264.998H192.007V275.428ZM139.855 90.9403H105.304V101.371H172.45V90.9403H139.855ZM139.855 89.6365H173.754V102.675H105.304H34.8989V89.6365H70.1016V77.9023H139.855V89.6365ZM104.001 101.371V90.9403H70.1016H36.2027V101.371H104.001ZM138.551 89.6365V79.2061H71.4054V89.6365H104.001H138.551ZM68.7978 120.276H138.551V133.314H68.7978H0.348145V120.276H68.7978ZM68.7978 132.01V121.58H1.65195V132.01H68.7978ZM70.1016 132.01H137.248V121.58H70.1016V132.01Z" fill="white"/>
<path d="M259.805 306.72H191.355V318.454H259.805V306.72Z" stroke="white" stroke-width="2"/>
<path d="M294.356 276.732H225.906V288.467H294.356V276.732Z" stroke="white" stroke-width="2"/>
</g>
<path fill-rule="evenodd" clip-rule="evenodd" d="M373.214 293.356C361.944 312.161 361.944 323.06 373.214 326.052C384.483 329.043 394.052 319.854 401.92 298.485L373.214 293.356Z" fill="#11103C"/>
<path d="M386.6 523.477C463.107 523.477 525.129 515.889 525.129 506.528C525.129 497.167 463.107 489.578 386.6 489.578C310.092 489.578 248.071 497.167 248.071 506.528C248.071 515.889 310.092 523.477 386.6 523.477Z" fill="#11103C"/>
<mask id="mask2" mask-type="alpha" maskUnits="userSpaceOnUse" x="156" y="276" width="446" height="273">
<path d="M554.07 498.565L569.037 509.141C569.141 509.215 569.242 509.294 569.339 509.377C571.061 510.853 571.26 513.444 569.784 515.165C568.016 517.229 565.146 517.967 562.602 517.013C545.666 510.664 535.891 506.083 533.278 503.268L493.186 468.391L442.338 455.679L439.078 522.173C434.946 522.536 431.795 522.753 429.626 522.825C410.069 523.477 394.207 523.716 383.811 523.877C373.384 524.039 361.131 523.877 343.37 523.331C341.715 523.28 338.345 522.916 333.259 522.239L340.091 450.947L298.087 493.593C294.741 496.991 291.031 500.011 287.026 502.599L248.881 527.251C244.51 530.076 239.649 532.058 234.548 533.095L156.805 548.901C155.666 539.635 159.469 531.269 168.213 523.803C175.844 517.288 201.263 512.87 219.387 511.743C221.12 511.635 236.051 499.355 264.181 474.903C265.173 474.042 266.103 473.113 266.967 472.124L314.988 417.144C326.574 403.878 343.124 395.984 360.726 395.328L385.622 394.401L391.189 369.276H377.631C367.55 369.276 359.378 361.104 359.378 351.023C359.378 349.017 359.708 347.025 360.356 345.127L373.869 305.534C379.815 288.115 396.182 276.406 414.589 276.406H423.706C439.182 276.406 451.728 288.953 451.728 304.429C451.728 307.67 451.166 310.887 450.067 313.935L419.521 398.638L502.148 428.881C513.343 432.978 523.2 440.066 530.647 449.375L553.161 477.518C572.718 476.649 583.366 477.735 585.104 480.778C586.548 483.304 591.663 488.902 600.45 497.573C602.194 499.294 602.213 502.104 600.492 503.848C599.894 504.454 599.135 504.875 598.305 505.061C593.26 506.194 587.973 504.962 583.948 501.716L580.215 498.705C566.832 499.434 558.357 499.434 554.791 498.705C554.549 498.655 554.309 498.609 554.07 498.565Z" fill="white"/>
</mask>
<g mask="url(#mask2)">
<path d="M554.07 498.565L569.037 509.141C569.141 509.215 569.242 509.294 569.339 509.377C571.061 510.853 571.26 513.444 569.784 515.165C568.016 517.229 565.146 517.967 562.602 517.013C545.666 510.664 535.891 506.083 533.278 503.268L493.186 468.391L442.338 455.679L439.078 522.173C434.946 522.536 431.795 522.753 429.626 522.825C410.069 523.477 394.207 523.716 383.811 523.877C373.384 524.039 361.131 523.877 343.37 523.331C341.715 523.28 338.345 522.916 333.259 522.239L340.091 450.947L298.087 493.593C294.741 496.991 291.031 500.011 287.026 502.599L248.881 527.251C244.51 530.076 239.649 532.058 234.548 533.095L156.805 548.901C155.666 539.635 159.469 531.269 168.213 523.803C175.844 517.288 201.263 512.87 219.387 511.743C221.12 511.635 236.051 499.355 264.181 474.903C265.173 474.042 266.103 473.113 266.967 472.124L314.988 417.144C326.574 403.878 343.124 395.984 360.726 395.328L385.622 394.401L391.189 369.276H377.631C367.55 369.276 359.378 361.104 359.378 351.023C359.378 349.017 359.708 347.025 360.356 345.127L373.869 305.534C379.815 288.115 396.182 276.406 414.589 276.406H423.706C439.182 276.406 451.728 288.953 451.728 304.429C451.728 307.67 451.166 310.887 450.067 313.935L419.521 398.638L502.148 428.881C513.343 432.978 523.2 440.066 530.647 449.375L553.161 477.518C572.718 476.649 583.366 477.735 585.104 480.778C586.548 483.304 591.663 488.902 600.45 497.573C602.194 499.294 602.213 502.104 600.492 503.848C599.894 504.454 599.135 504.875 598.305 505.061C593.26 506.194 587.973 504.962 583.948 501.716L580.215 498.705C566.832 499.434 558.357 499.434 554.791 498.705C554.549 498.655 554.309 498.609 554.07 498.565Z" fill="#FFCDCD"/>
<path fill-rule="evenodd" clip-rule="evenodd" d="M370.628 393.423C376.495 403.419 386.274 409.068 399.964 410.372C413.654 411.676 423.649 408.416 429.951 400.594L499.053 414.548L470.043 467.74L455.375 465.784L442.542 523.135L322.423 531.3L340.441 451.832L322.423 485.579L272.191 429.788C293.892 408.454 313.093 395.572 329.794 391.143C346.494 386.715 360.106 387.474 370.628 393.423Z" fill="#FFF9D6"/>
</g>
<path fill-rule="evenodd" clip-rule="evenodd" d="M442.137 309.904L455.374 313.072C455.49 335.564 449.584 345.336 437.656 342.388C431.691 340.914 428.314 337.286 427.525 331.504C422.512 335.595 417.295 336.716 411.873 334.865C400.876 331.11 400.365 320.099 410.34 301.831L442.338 309.46C442.271 309.608 442.204 309.757 442.137 309.904Z" fill="#11103C"/>
<mask id="mask3" mask-type="alpha" maskUnits="userSpaceOnUse" x="368" y="269" width="94" height="47">
<path d="M368.021 292.03L461.242 315.52C457.378 311.879 455.53 309.099 455.7 307.181C457.622 285.439 445.561 278.569 420.8 273.193C395.919 267.791 388.327 267.183 377.72 285.628C376.823 287.187 373.59 289.322 368.021 292.03Z" fill="white"/>
</mask>
<g mask="url(#mask3)">
<path d="M368.021 292.03L461.242 315.52C457.378 311.879 455.53 309.099 455.7 307.181C457.622 285.439 445.561 278.569 420.8 273.193C395.919 267.791 388.327 267.183 377.72 285.628C376.823 287.187 373.59 289.322 368.021 292.03Z" fill="#3C3CA0"/>
<path fill-rule="evenodd" clip-rule="evenodd" d="M386.926 284.881L457.657 303.786L459.613 296.289L389.533 275.103L386.926 284.881Z" fill="#26266F"/>
</g>
<path d="M383.341 288.792C390.361 288.792 396.053 283.101 396.053 276.08C396.053 269.06 390.361 263.368 383.341 263.368C376.32 263.368 370.628 269.06 370.628 276.08C370.628 283.101 376.32 288.792 383.341 288.792Z" fill="#F5CB76"/>
<path d="M383.34 285.533C388.921 285.533 393.445 281.301 393.445 276.08C393.445 270.86 388.921 266.628 383.34 266.628C377.76 266.628 373.236 270.86 373.236 276.08C373.236 281.301 377.76 285.533 383.34 285.533Z" fill="#FFEECD"/>
<path d="M379.319 308.92C377.938 305.657 375.937 304.112 373.236 304.112V302.156C376.608 302.156 379.171 304.009 380.853 307.563C387.395 303.665 392.889 305.087 396.891 311.758C397.169 312.221 397.019 312.822 396.556 313.099C396.092 313.377 395.492 313.227 395.214 312.764C391.63 306.791 387.103 305.795 381.134 309.693L367.611 332.572L375.539 334.118C376.069 334.221 376.415 334.735 376.312 335.265C376.209 335.795 375.695 336.141 375.165 336.037L365.878 334.227C365.215 334.098 364.879 333.351 365.223 332.77L379.319 308.92ZM386.926 318.128C385.486 318.128 384.318 316.961 384.318 315.52C384.318 314.08 385.486 312.913 386.926 312.913C388.366 312.913 389.533 314.08 389.533 315.52C389.533 316.961 388.366 318.128 386.926 318.128ZM373.236 314.217C371.796 314.217 370.628 313.049 370.628 311.609C370.628 310.169 371.796 309.001 373.236 309.001C374.676 309.001 375.843 310.169 375.843 311.609C375.843 313.049 374.676 314.217 373.236 314.217ZM369.09 347.246C366.123 346.436 364.26 343.98 364.93 341.76C365.599 339.54 368.547 338.397 371.514 339.207C374.482 340.017 376.344 342.473 375.675 344.692C375.006 346.912 372.057 348.056 369.09 347.246ZM361.562 355.926C361.749 355.42 362.311 355.16 362.818 355.347C363.324 355.533 363.584 356.096 363.397 356.602L361.115 362.795C360.929 363.302 360.367 363.562 359.86 363.375C359.353 363.188 359.094 362.626 359.28 362.119L361.562 355.926ZM365.473 357.23C365.66 356.723 366.222 356.464 366.729 356.651C367.236 356.837 367.495 357.399 367.308 357.906L365.027 364.099C364.84 364.606 364.278 364.865 363.771 364.679C363.264 364.492 363.005 363.93 363.192 363.423L365.473 357.23ZM369.385 358.534C369.571 358.027 370.134 357.768 370.64 357.954C371.147 358.141 371.407 358.703 371.22 359.21L368.938 365.403C368.752 365.91 368.189 366.169 367.683 365.983C367.176 365.796 366.916 365.234 367.103 364.727L369.385 358.534Z" fill="#11103C"/>
<path fill-rule="evenodd" clip-rule="evenodd" d="M477.54 101.371V114.409H409.091H338.685V101.371H351.723V88.3327H420.173H489.926V101.371H477.54ZM420.173 128.099H489.926V141.137H420.173V128.099ZM261.761 365.391V377.777H191.355V365.391H156.805V352.353H225.254H295.008V365.391H261.761ZM634.649 199.808H669.851V212.846H601.402H530.996V199.808H496.446V186.77H564.895H634.649V199.808ZM583.148 347.464H629.433V360.502H559.68V348.116H513.395V335.078H583.148V347.464Z" fill="#8E8CD9"/>
<path d="M69.4497 78.5542H1V90.2884H69.4497V78.5542Z" stroke="white" stroke-width="2"/>
<path d="M115.388 196.567V202.71H109.729V207.318H102.454V202.71H82.4878V196.567L102.454 179.025H109.729V196.567H115.388ZM90.3289 196.567H102.454V186.3L90.3289 196.567ZM133.859 207.722C122.623 207.722 117.288 202.548 117.288 193.131C117.288 183.754 122.623 178.621 133.859 178.621C145.055 178.621 150.43 183.795 150.43 193.131C150.43 202.508 145.055 207.722 133.859 207.722ZM133.859 201.619C140.245 201.619 143.155 198.426 143.155 193.131C143.155 187.877 140.245 184.724 133.859 184.724C127.473 184.724 124.563 187.836 124.563 193.131C124.563 198.466 127.473 201.619 133.859 201.619ZM185.715 196.567V202.71H180.057V207.318H172.781V202.71H152.815V196.567L172.781 179.025H180.057V196.567H185.715ZM160.656 196.567H172.781V186.3L160.656 196.567Z" fill="white"/>
<path fill-rule="evenodd" clip-rule="evenodd" d="M419.521 219.691H425.388V232.729H419.521V219.691ZM566.851 257.501H572.718V270.539H566.851V257.501Z" fill="#8E8CD9"/>
<path fill-rule="evenodd" clip-rule="evenodd" d="M483.407 511.743H377.799V523.803H368.021V483.385C368.021 480.685 370.21 478.496 372.91 478.496C375.61 478.496 377.799 480.685 377.799 483.385V501.964H483.407V483.385C483.407 480.685 485.596 478.496 488.296 478.496C490.997 478.496 493.186 480.685 493.186 483.385V517.284L483.407 518.588V511.743Z" fill="#C93636"/>
<path d="M187.526 533.286C183.221 534.577 180.273 538.54 180.273 543.034C180.273 543.574 180.711 544.012 181.251 544.012C181.791 544.012 182.229 543.574 182.229 543.034C182.229 539.403 184.61 536.202 188.088 535.159L197.829 532.237C198.122 532.149 198.356 531.929 198.464 531.644C198.852 530.61 201.561 528.839 206.424 526.65C210.936 524.62 213.462 524.284 216.502 524.672L216.917 524.726C217.079 524.746 217.203 524.762 217.323 524.775C217.86 524.835 218.344 524.448 218.403 523.911C218.463 523.374 218.076 522.891 217.539 522.831C217.433 522.819 217.318 522.805 217.166 522.786C217.119 522.78 216.836 522.743 216.75 522.732C213.361 522.299 210.472 522.684 205.622 524.867C200.709 527.078 197.832 528.869 196.863 530.484L187.526 533.286Z" fill="#11103C"/>
<path fill-rule="evenodd" clip-rule="evenodd" d="M422.78 340.722C436 344.156 443.689 341.592 445.848 333.03C447.485 326.538 444.058 321.181 436.54 322.998C434.943 323.383 431.877 326.323 427.344 331.818L422.78 340.722Z" fill="#FFCDCD"/>
<path d="M564.705 488.591L574.643 487.196C579.868 486.463 585.158 487.985 589.193 491.383L601.098 501.409C601.511 501.756 602.128 501.704 602.476 501.29C602.823 500.877 602.771 500.26 602.358 499.913L590.453 489.888C585.993 486.132 580.146 484.449 574.371 485.259L564.433 486.654C563.899 486.729 563.526 487.224 563.601 487.758C563.676 488.293 564.17 488.666 564.705 488.591Z" fill="#11103C"/>
<path d="M408.439 102.023H351.723V100.719H420.825V88.3327H422.129V100.719H477.54V102.023H409.743V114.409H408.439V102.023ZM600.75 200.46H531.322C530.962 200.46 530.67 200.168 530.67 199.808C530.67 199.448 530.962 199.156 531.322 199.156H565.547V186.77H566.851V199.156H634.649C635.009 199.156 635.301 199.448 635.301 199.808C635.301 200.168 635.009 200.46 634.649 200.46H602.054V212.846H600.75V200.46ZM559.68 348.441C559.32 348.441 559.028 348.15 559.028 347.79C559.028 347.43 559.32 347.138 559.68 347.138H583.148C583.508 347.138 583.8 347.43 583.8 347.79C583.8 348.15 583.508 348.441 583.148 348.441H559.68ZM225.254 364.739V352.353H226.558V364.739H261.761V366.043H192.007V364.739H225.254Z" fill="#11103C"/>
</svg>
