<svg width="24" height="24" viewBox="0 0 24 24" fill="none" xmlns="http://www.w3.org/2000/svg">
<path fill-rule="evenodd" clip-rule="evenodd" d="M10.8 17.2C7.2654 17.2 4.40002 14.3346 4.40002 10.8C4.40002 7.26537 7.2654 4.39999 10.8 4.39999C14.3346 4.39999 17.2 7.26537 17.2 10.8C17.2 12.2064 16.7463 13.5069 15.9774 14.5631L18.7071 17.2929C19.0977 17.6834 19.0977 18.3166 18.7071 18.7071C18.3166 19.0976 17.6834 19.0976 17.2929 18.7071L14.5631 15.9773C13.507 16.7463 12.2065 17.2 10.8 17.2ZM15.2 10.8C15.2 13.23 13.2301 15.2 10.8 15.2C8.36997 15.2 6.40002 13.23 6.40002 10.8C6.40002 8.36994 8.36997 6.39999 10.8 6.39999C13.2301 6.39999 15.2 8.36994 15.2 10.8Z" fill="#E6E6EF"/>
</svg>
