<svg width="15" height="15" viewBox="0 0 15 15" fill="none" xmlns="http://www.w3.org/2000/svg">
<path fill-rule="evenodd" clip-rule="evenodd" d="M6.7999 13.2C3.26528 13.2 0.399902 10.3346 0.399902 6.8C0.399902 3.26538 3.26528 0.400002 6.7999 0.400002C10.3345 0.400002 13.1999 3.26538 13.1999 6.8C13.1999 8.20645 12.7462 9.50695 11.9772 10.5631L14.707 13.2929C15.0975 13.6834 15.0975 14.3166 14.707 14.7071C14.3165 15.0976 13.6833 15.0976 13.2928 14.7071L10.563 11.9773C9.50685 12.7463 8.20636 13.2 6.7999 13.2ZM11.1999 6.8C11.1999 9.23005 9.22996 11.2 6.7999 11.2C4.36985 11.2 2.3999 9.23005 2.3999 6.8C2.3999 4.36995 4.36985 2.4 6.7999 2.4C9.22996 2.4 11.1999 4.36995 11.1999 6.8Z" fill="#E6E6EF"/>
</svg>
